PathFileType	4	(X/Y/Z)	/Users/itak/Documents/Research/Walk-IL/dataset/trc/00510_00183.trc
DataRate	CameraRate	NumFrames	NumMarkers	Units	OrigDataRate	OrigDataStartFrame	OrigNumFrames
100.000000	100.000000	4	53	mm	100.000000	95	382
Frame#	Time	RPSI			LPSI			L3			STRN			T10			C7			CLAV			RBAK			LBAK			LSHO			LUPA			LAEL			LAOL			LWTS			LWPS			LFRA			LIFD			LHPS			LHTS			RSHO			RUPA			RAEL			RAOL			RWTS			RWPS			RFRA			RIFD			RHTS			RBHD			LFHD			RFHD			LBHD			LHIP			RHIP			RASI			LASI			LKNE			LTHI			LANK			LTIP			LTOE			LMT1			LMT5			LHEE			RKNE			RTHI			RANK			RTIP			RTOE			RMT1			RMT5			RHEE			RHPS			
		X1	Y1	Z1	X2	Y2	Z2	X3	Y3	Z3	X4	Y4	Z4	X5	Y5	Z5	X6	Y6	Z6	X7	Y7	Z7	X8	Y8	Z8	X9	Y9	Z9	X10	Y10	Z10	X11	Y11	Z11	X12	Y12	Z12	X13	Y13	Z13	X14	Y14	Z14	X15	Y15	Z15	X16	Y16	Z16	X17	Y17	Z17	X18	Y18	Z18	X19	Y19	Z19	X20	Y20	Z20	X21	Y21	Z21	X22	Y22	Z22	X23	Y23	Z23	X24	Y24	Z24	X25	Y25	Z25	X26	Y26	Z26	X27	Y27	Z27	X28	Y28	Z28	X29	Y29	Z29	X30	Y30	Z30	X31	Y31	Z31	X32	Y32	Z32	X33	Y33	Z33	X34	Y34	Z34	X35	Y35	Z35	X36	Y36	Z36	X37	Y37	Z37	X38	Y38	Z38	X39	Y39	Z39	X40	Y40	Z40	X41	Y41	Z41	X42	Y42	Z42	X43	Y43	Z43	X44	Y44	Z44	X45	Y45	Z45	X46	Y46	Z46	X47	Y47	Z47	X48	Y48	Z48	X49	Y49	Z49	X50	Y50	Z50	X51	Y51	Z51	X52	Y52	Z52	X53	Y53	Z53	

96	0.9500000000000001	-1152.37451171875	966.8880004882812	-493.9450378417969	-1073.773803710938	968.194091796875	-590.50927734375	-1113.74658203125	1039.943725585938	-536.2005615234375	-912.812255859375	1180.200439453125	-417.1990051269531	-1120.843017578125	1145.151611328125	-530.0894775390625	-1062.6689453125	1368.676513671875	-494.0379028320312	-934.3693237304688	1278.109985351562	-429.6479187011719	-1155.180419921875	1251.790405273438	-445.3114929199219	-1050.87744140625	1317.963745117188	-584.0652465820312	-930.8963623046875	1357.342529296875	-605.2841796875	-940.2078857421875	1240.265380859375	-677.6460571289062	-960.3685913085938	1037.69482421875	-727.247802734375	-1053.503784179688	1038.581665039062	-689.3156127929688	-892.387939453125	855.24658203125	-659.29931640625	-941.4888916015625	821.3614501953125	-732.39501953125	-944.7237548828125	960.5223999023438	-725.4207763671875	-892.1116333007812	698.6199951171875	-653.8441162109375	-919.0581665039062	767.8828735351562	-720.4064331054688	-872.5560302734375	778.9385986328125	-675.4075927734375	-1081.781616210938	1361.276000976562	-339.7696838378906	-1128.195434570312	1297.843139648438	-295.7588195800781	-1141.637817382812	1030.590942382812	-246.7767639160156	-1183.0732421875	1010.803100585938	-294.7445983886719	-983.836669921875	872.7296142578125	-252.9658355712891	-1056.250366210938	833.6036987304688	-213.4965972900391	-1130.5869140625	979.2471923828125	-237.7174987792969	-953.0635375976562	713.68310546875	-245.9340667724609	-952.3159790039062	782.0161743164062	-223.6381988525391	-1056.079956054688	1517.068237304688	-402.995361328125	-871.05615234375	1571.716552734375	-458.6572570800781	-939.5999755859375	1569.232666015625	-350.9159240722656	-983.2002563476562	1516.576416015625	-545.39599609375	-909.3812255859375	889.2225952148438	-627.0192260742188	-1155.762573242188	858.3226928710938	-338.2847900390625	-1034.452758789062	894.7909545898438	-322.7436828613281	-885.7783203125	913.411376953125	-512.3442993164062	-914.05859375	463.9186706542969	-537.3171997070312	-892.1218872070312	621.3002319335938	-566.5066528320312	-1112.658447265625	90.39581298828125	-674.4801025390625	-970.0978393554688	330.9846496582031	-585.4202880859375	-997.5565185546875	39.82587051391602	-519.2366943359375	-1074.525512695312	51.53028106689453	-533.49267578125	-1023.862182617188	57.55929946899414	-623.2935791015625	-1186.665161132812	97.19940185546875	-651.4863891601562	-1184.562866210938	475.5273132324219	-370.6184997558594	-1149.362548828125	731.250244140625	-323.447021484375	-1273.6728515625	50.77806854248047	-451.8275756835938	-1194.266967773438	331.9559326171875	-392.7507019042969	-1089.498291015625	51.865478515625	-369.6819152832031	-1117.427368164062	47.32648849487305	-440.0731506347656	-1190.94970703125	50.68440628051758	-375.6630859375	-1291.78564453125	36.77899169921875	-519.484130859375	-1019.868530273438	768.2496948242188	-206.1710205078125	
97	0.96	-1148.358032226562	966.5220947265625	-493.6677856445312	-1069.273193359375	967.7821044921875	-589.8396606445312	-1108.887084960938	1040.046752929688	-534.5701904296875	-908.572265625	1179.91015625	-416.8482666015625	-1116.472045898438	1144.8212890625	-528.7703857421875	-1058.353881835938	1368.448364257812	-493.6331481933594	-930.0506591796875	1277.788940429688	-429.4768676757812	-1150.846557617188	1251.766235351562	-444.3097534179688	-1046.67138671875	1317.56005859375	-583.3930053710938	-926.7656860351562	1356.898681640625	-605.1170654296875	-937.4886474609375	1239.94287109375	-677.3150634765625	-960.4188232421875	1037.928955078125	-727.5147705078125	-1052.624267578125	1038.9697265625	-687.3333740234375	-889.8014526367188	855.412841796875	-662.40478515625	-942.2830200195312	821.8629150390625	-732.7492065429688	-944.8631591796875	960.9869995117188	-726.0979614257812	-891.7570190429688	698.4157104492188	-656.3692016601562	-920.4417114257812	768.3430786132812	-721.8096313476562	-871.85009765625	778.4033203125	-678.9813842773438	-1077.020629882812	1361.643676757812	-339.3948974609375	-1122.92041015625	1298.151733398438	-294.8322448730469	-1134.145263671875	1031.11474609375	-244.1210021972656	-1176.13916015625	1010.825256347656	-291.4205017089844	-975.3871459960938	875.2279052734375	-251.1755218505859	-1046.901733398438	834.7630615234375	-211.4544525146484	-1122.636108398438	979.9408569335938	-235.0045166015625	-940.7040405273438	717.390869140625	-243.4928131103516	-941.8729248046875	785.6878051757812	-221.3908996582031	-1051.0517578125	1516.658081054688	-401.6070861816406	-865.8947143554688	1570.725341796875	-456.9366760253906	-934.2494506835938	1567.738037109375	-349.157470703125	-978.236572265625	1516.971801757812	-544.02685546875	-904.6821899414062	888.7384033203125	-625.0950927734375	-1152.834594726562	857.9931640625	-338.0714416503906	-1031.5283203125	894.5737915039062	-321.420654296875	-881.8758544921875	913.0662841796875	-510.2969055175781	-910.0451049804688	463.43994140625	-535.2611694335938	-887.8994140625	620.8519287109375	-564.6932373046875	-1111.495849609375	91.97039031982422	-674.1521606445312	-966.8870239257812	331.0454711914062	-583.5635375976562	-997.5032958984375	39.67268753051758	-518.97900390625	-1074.1064453125	51.93523406982422	-533.2686157226562	-1023.21240234375	57.89170837402344	-623.0946655273438	-1185.44775390625	99.43161010742188	-651.296875	-1181.133056640625	475.2337036132812	-370.4548950195312	-1146.526611328125	730.9373168945312	-323.2029724121094	-1273.487670898438	50.84507369995117	-451.950927734375	-1191.188720703125	331.4158630371094	-392.7824096679688	-1089.240844726562	51.34412002563477	-369.8992004394531	-1117.207885742188	46.86372756958008	-440.2286071777344	-1190.771728515625	50.66922378540039	-375.7852783203125	-1291.74853515625	36.73886489868164	-519.5645141601562	-1009.0263671875	770.2601318359375	-203.9658813476562	
98	0.97	-1144.10791015625	966.2084350585938	-493.1381530761719	-1064.50927734375	967.4285888671875	-588.9013061523438	-1103.901489257812	1040.06201171875	-532.948974609375	-904.2078857421875	1179.6552734375	-416.4323425292969	-1111.848266601562	1144.439086914062	-527.5344848632812	-1053.885986328125	1368.1865234375	-493.4425048828125	-925.6161499023438	1277.500244140625	-429.3270263671875	-1146.35888671875	1251.74609375	-443.4915466308594	-1042.25537109375	1317.113037109375	-582.8939819335938	-922.3523559570312	1356.388916015625	-605.00732421875	-934.41650390625	1239.499389648438	-676.9378051757812	-960.2741088867188	1038.09521484375	-727.5952758789062	-1051.38330078125	1039.265502929688	-685.0706787109375	-886.49169921875	855.6730346679688	-665.7777099609375	-942.9804077148438	822.2395629882812	-732.3935546875	-944.7431640625	961.41357421875	-726.5406494140625	-890.6497192382812	698.2757568359375	-658.5968627929688	-921.6553344726562	768.7266845703125	-722.5822143554688	-870.6400146484375	777.866455078125	-682.6458129882812	-1072.233764648438	1362.13916015625	-339.2775573730469	-1117.672973632812	1298.628662109375	-294.1804809570312	-1126.718627929688	1031.8330078125	-241.7156372070312	-1169.203735351562	1011.064025878906	-288.3902282714844	-967.3490600585938	877.6487426757812	-249.3528900146484	-1038.135864257812	835.7614135742188	-209.8576812744141	-1114.841674804688	980.7575073242188	-232.5331878662109	-928.5386962890625	721.2460327148438	-241.1455688476562	-931.9568481445312	789.3646240234375	-219.0992431640625	-1045.961791992188	1516.240966796875	-400.3163146972656	-860.611572265625	1569.69970703125	-455.1676330566406	-928.8582763671875	1566.144287109375	-347.403564453125	-973.1278686523438	1517.436279296875	-542.7020874023438	-899.8302612304688	888.2234497070312	-623.0668334960938	-1149.67822265625	857.6218872070312	-337.658935546875	-1028.352783203125	894.2526245117188	-319.9893188476562	-877.6988525390625	912.6609497070312	-508.1264953613281	-906.5238037109375	462.8340454101562	-533.8555908203125	-883.935791015625	620.24169921875	-563.3584594726562	-1110.540893554688	93.09808349609375	-673.9688110351562	-964.120849609375	330.9115905761719	-582.2335205078125	-997.4232788085938	39.50666427612305	-518.8070678710938	-1073.74072265625	52.27089309692383	-533.1585693359375	-1022.68017578125	58.02985000610352	-623.0104370117188	-1184.487670898438	101.1910934448242	-651.2386474609375	-1177.175170898438	474.81787109375	-370.201416015625	-1143.434936523438	730.5088500976562	-322.8766784667969	-1273.28076171875	50.92111968994141	-452.05908203125	-1187.6162109375	330.7258605957031	-392.7216796875	-1088.930053710938	50.74274063110352	-370.1392211914062	-1116.968017578125	46.35820007324219	-440.3913269042969	-1190.562744140625	50.6304817199707	-375.91796875	-1291.693237304688	36.72786331176758	-519.665771484375	-998.73779296875	772.1340942382812	-202.1646270751953	
99	0.98	-1139.645141601562	965.959228515625	-492.3490600585938	-1059.509643554688	967.1427612304688	-587.694580078125	-1098.836303710938	1039.982299804688	-531.3555908203125	-899.7238159179688	1179.421875	-415.9309997558594	-1106.998901367188	1144.018676757812	-526.3816528320312	-1049.252807617188	1367.887573242188	-493.4620056152344	-921.063720703125	1277.23486328125	-429.1833190917969	-1141.719848632812	1251.739013671875	-442.8564758300781	-1037.632934570312	1316.627563476562	-582.5731811523438	-917.6561889648438	1355.787353515625	-604.9481201171875	-930.966552734375	1238.909423828125	-676.4990844726562	-959.8660278320312	1038.176025390625	-727.4906616210938	-1049.723266601562	1039.4228515625	-682.5607299804688	-882.4524536132812	856.0701904296875	-669.3324584960938	-943.41943359375	822.416015625	-731.1927490234375	-944.2900390625	961.7708129882812	-726.7127075195312	-888.4000854492188	698.26611328125	-660.4150390625	-922.4088745117188	768.981201171875	-722.56591796875	-868.7363891601562	777.4312744140625	-686.2742309570312	-1067.41455078125	1362.752075195312	-339.4118347167969	-1112.471435546875	1299.282836914062	-293.8017272949219	-1119.43896484375	1032.754638671875	-239.5887756347656	-1162.350708007812	1011.533813476562	-285.685546875	-959.8070678710938	879.9359741210938	-247.490478515625	-1030.072265625	836.5806274414062	-208.7130889892578	-1107.29296875	981.7007446289062	-230.3240356445312	-916.8078002929688	725.1278076171875	-238.9488372802734	-922.7217407226562	792.9166870117188	-216.7958984375	-1040.803344726562	1515.81591796875	-399.1397705078125	-855.1828002929688	1568.644165039062	-453.3681335449219	-923.4276123046875	1564.454345703125	-345.67041015625	-967.86962890625	1517.961669921875	-541.44091796875	-894.8590698242188	887.6730346679688	-620.9383544921875	-1146.314208984375	857.2001953125	-337.0429992675781	-1024.968872070312	893.804931640625	-318.4671325683594	-873.2628784179688	912.182373046875	-505.8474426269531	-903.5224609375	462.1092834472656	-533.1433715820312	-880.2481079101562	619.4774169921875	-562.4942016601562	-1109.828857421875	93.74777984619141	-673.9605102539062	-961.8402709960938	330.575439453125	-581.5004272460938	-997.3175048828125	39.3498649597168	-518.75927734375	-1073.439331054688	52.54313278198242	-533.18310546875	-1022.275390625	57.95249557495117	-623.06884765625	-1183.816772460938	102.4578552246094	-651.3236694335938	-1172.578247070312	474.2427673339844	-369.8591918945312	-1140.07421875	729.9348754882812	-322.4585266113281	-1273.043579101562	51.03205108642578	-452.1582641601562	-1183.491455078125	329.8592834472656	-392.5297241210938	-1088.564208984375	50.05441284179688	-370.3925476074219	-1116.711547851562	45.81462097167969	-440.5480651855469	-1190.322509765625	50.56679534912109	-376.0523986816406	-1291.607788085938	36.8034782409668	-519.7962036132812	-989.1766357421875	773.8059692382812	-200.8052825927734	
